<svg xmlns="http://www.w3.org/2000/svg" xmlns:xlink="http://www.w3.org/1999/xlink" width="500"
  zoomAndPan="magnify" viewBox="0 0 375 149.999998" height="200" preserveAspectRatio="xMidYMid meet"
  version="1.0">
  <defs>
    <clipPath id="edb47362bb">
      <path d="M 6.617188 83 L 22 83 L 22 98 L 6.617188 98 Z M 6.617188 83 " clip-rule="nonzero" />
    </clipPath>
  </defs>
  <path stroke-linecap="butt" transform="matrix(0.732422, 0, 0, 0.732414, -156.45948, 86.4238)"
    fill-opacity="1" fill="#ef9fbc" fill-rule="nonzero" stroke-linejoin="miter"
    d="M 338.259364 -35.421668 C 335.304697 -37.064352 332.136697 -37.88036 328.755364 -37.869693 C 325.368697 -37.869693 322.344696 -37.005684 319.608696 -35.421668 C 316.872696 -33.837651 314.787363 -31.608294 313.347363 -28.728264 L 313.347363 -37.58169 L 309.891362 -37.58169 L 309.891362 13.965518 L 313.491363 13.965518 L 313.491363 -8.568052 C 314.931363 -5.757356 317.016696 -3.602666 319.752696 -2.01865 C 322.419363 -0.434633 325.443363 0.285375 328.755364 0.285375 C 332.211364 0.285375 335.379364 -0.503967 338.259364 -2.087984 C 341.064698 -3.672 343.299364 -5.976025 344.883365 -8.856055 C 346.467365 -11.736085 347.331365 -15.04812 347.331365 -18.792159 C 347.331365 -22.461531 346.467365 -25.773566 344.883365 -28.653596 C 343.299364 -31.533627 341.064698 -33.768317 338.259364 -35.421668 Z M 336.312697 -4.968014 C 334.008697 -3.602666 331.416697 -2.951993 328.536697 -2.951993 C 325.656697 -2.951993 323.064697 -3.602666 320.760696 -4.968014 C 318.456696 -6.264028 316.659363 -8.136047 315.363363 -10.584073 C 314.067363 -12.957431 313.416696 -15.69346 313.416696 -18.792159 C 313.416696 -21.816191 314.067363 -24.55222 315.363363 -27.000246 C 316.659363 -29.373604 318.456696 -31.245624 320.760696 -32.616305 C 323.064697 -33.912318 325.656697 -34.632326 328.536697 -34.632326 C 331.416697 -34.632326 334.008697 -33.912318 336.312697 -32.616305 C 338.616697 -31.245624 340.419364 -29.373604 341.715364 -27.000246 C 343.011364 -24.55222 343.731364 -21.816191 343.731364 -18.792159 C 343.731364 -15.69346 343.011364 -12.957431 341.715364 -10.584073 C 340.419364 -8.136047 338.616697 -6.264028 336.312697 -4.968014 Z M 336.312697 -4.968014 "
    stroke="#ef9fbc" stroke-width="0.7" stroke-opacity="1" stroke-miterlimit="2" />
  <path stroke-linecap="butt" transform="matrix(0.732422, 0, 0, 0.732414, -156.45948, 86.4238)"
    fill-opacity="1" fill="#e0a3bd" fill-rule="nonzero" stroke-linejoin="miter"
    d="M 367.400699 -35.640337 C 364.952699 -34.200321 363.155366 -32.109633 362.003366 -29.373604 L 362.003366 -37.58169 L 358.547365 -37.58169 L 358.547365 -0.00262851 L 362.147366 -0.00262851 L 362.147366 -19.581501 C 362.147366 -24.18955 363.299366 -27.864255 365.672699 -30.456282 C 367.976699 -33.048309 371.2887 -34.413657 375.4647 -34.413657 L 376.3287 -34.344323 L 376.3287 -37.869693 C 372.803366 -37.869693 369.848699 -37.080352 367.400699 -35.640337 Z M 367.400699 -35.640337 "
    stroke="#e0a3bd" stroke-width="0.7" stroke-opacity="1" stroke-miterlimit="2" />
  <path stroke-linecap="butt" transform="matrix(0.732422, 0, 0, 0.732414, -156.45948, 86.4238)"
    fill-opacity="1" fill="#d0a7bf" fill-rule="nonzero" stroke-linejoin="miter"
    d="M 391.006034 -2.162651 C 393.886034 -0.503967 397.054034 0.285375 400.654035 0.285375 C 404.184702 0.285375 407.352702 -0.503967 410.232702 -2.162651 C 413.112702 -3.741334 415.342036 -6.045359 417.000702 -8.925389 C 418.584702 -11.805419 419.448703 -15.117454 419.448703 -18.792159 C 419.448703 -22.392197 418.584702 -25.704232 417.000702 -28.584262 C 415.342036 -31.464293 413.112702 -33.768317 410.232702 -35.421668 C 407.352702 -37.005684 404.184702 -37.869693 400.654035 -37.869693 C 397.054034 -37.869693 393.886034 -37.005684 391.006034 -35.421668 C 388.126034 -33.768317 385.8967 -31.464293 384.3127 -28.584262 C 382.654034 -25.704232 381.8647 -22.392197 381.8647 -18.792159 C 381.8647 -15.117454 382.654034 -11.805419 384.3127 -8.925389 C 385.8967 -6.045359 388.126034 -3.746668 391.006034 -2.162651 Z M 408.360702 -4.968014 C 406.056702 -3.602666 403.534035 -2.951993 400.654035 -2.951993 C 397.774035 -2.951993 395.182034 -3.602666 392.878034 -4.968014 C 390.574034 -6.264028 388.776701 -8.136047 387.480701 -10.584073 C 386.1847 -12.957431 385.534034 -15.69346 385.534034 -18.792159 C 385.534034 -21.816191 386.1847 -24.55222 387.480701 -27.000246 C 388.776701 -29.373604 390.574034 -31.245624 392.878034 -32.616305 C 395.182034 -33.912318 397.774035 -34.632326 400.654035 -34.632326 C 403.534035 -34.632326 406.056702 -33.912318 408.360702 -32.616305 C 410.664702 -31.245624 412.462035 -29.373604 413.758036 -27.000246 C 415.054036 -24.55222 415.774036 -21.816191 415.774036 -18.792159 C 415.774036 -15.69346 415.054036 -12.957431 413.758036 -10.584073 C 412.462035 -8.136047 410.664702 -6.264028 408.360702 -4.968014 Z M 408.360702 -4.968014 "
    stroke="#d0a7bf" stroke-width="0.7" stroke-opacity="1" stroke-miterlimit="2" />
  <path stroke-linecap="butt" transform="matrix(0.732422, 0, 0, 0.732414, -156.45948, 86.4238)"
    fill-opacity="1" fill="#c1abc0" fill-rule="nonzero" stroke-linejoin="miter"
    d="M 488.291373 -33.768317 C 485.624707 -36.504346 481.955373 -37.869693 477.347373 -37.869693 C 473.747373 -37.869693 470.648706 -37.005684 467.987372 -35.421668 C 465.320705 -33.768317 463.379372 -31.533627 462.152705 -28.797598 C 461.144705 -31.752296 459.416705 -33.981652 457.043372 -35.565669 C 454.664705 -37.080352 451.784705 -37.869693 448.403371 -37.869693 C 444.947371 -37.869693 441.992704 -37.080352 439.544704 -35.640337 C 437.096704 -34.200321 435.224704 -32.109633 434.00337 -29.517606 L 434.00337 -37.58169 L 430.54737 -37.58169 L 430.54737 -0.00262851 L 434.14737 -0.00262851 L 434.14737 -20.013506 C 434.14737 -24.477553 435.368704 -28.008256 437.816704 -30.669618 C 440.264704 -33.261645 443.651371 -34.632326 447.896704 -34.632326 C 451.571371 -34.632326 454.451371 -33.480314 456.536705 -31.320291 C 458.552705 -29.085601 459.635372 -25.848234 459.635372 -21.67219 L 459.635372 -0.00262851 L 463.235372 -0.00262851 L 463.235372 -20.013506 C 463.235372 -24.477553 464.456705 -28.008256 466.904705 -30.669618 C 469.352706 -33.261645 472.739373 -34.632326 476.984706 -34.632326 C 480.659373 -34.632326 483.539373 -33.480314 485.624707 -31.320291 C 487.640707 -29.085601 488.723374 -25.848234 488.723374 -21.67219 L 488.723374 -0.00262851 L 492.323374 -0.00262851 L 492.323374 -21.960193 C 492.323374 -27.06958 490.952707 -31.032288 488.291373 -33.768317 Z M 488.291373 -33.768317 "
    stroke="#c1abc0" stroke-width="0.7" stroke-opacity="1" stroke-miterlimit="2" />
  <path stroke-linecap="butt" transform="matrix(0.732422, 0, 0, 0.732414, -156.45948, 86.4238)"
    fill-opacity="1" fill="#b2afc1" fill-rule="nonzero" stroke-linejoin="miter"
    d="M 535.555376 -35.421668 C 532.60071 -37.064352 529.432709 -37.88036 526.051376 -37.869693 C 522.664709 -37.869693 519.640709 -37.005684 516.904709 -35.421668 C 514.168708 -33.837651 512.083375 -31.608294 510.643375 -28.728264 L 510.643375 -37.58169 L 507.187375 -37.58169 L 507.187375 13.965518 L 510.787375 13.965518 L 510.787375 -8.568052 C 512.227375 -5.757356 514.312708 -3.602666 517.048709 -2.01865 C 519.715375 -0.434633 522.739376 0.285375 526.051376 0.285375 C 529.507376 0.285375 532.675376 -0.503967 535.555376 -2.087984 C 538.36071 -3.672 540.595377 -5.976025 542.179377 -8.856055 C 543.763377 -11.736085 544.627377 -15.04812 544.627377 -18.792159 C 544.627377 -22.461531 543.763377 -25.773566 542.179377 -28.653596 C 540.595377 -31.533627 538.36071 -33.768317 535.555376 -35.421668 Z M 533.60871 -4.968014 C 531.30471 -3.602666 528.712709 -2.951993 525.832709 -2.951993 C 522.952709 -2.951993 520.360709 -3.602666 518.056709 -4.968014 C 515.752709 -6.264028 513.955375 -8.136047 512.659375 -10.584073 C 511.363375 -12.957431 510.712708 -15.69346 510.712708 -18.792159 C 510.712708 -21.816191 511.363375 -24.55222 512.659375 -27.000246 C 513.955375 -29.373604 515.752709 -31.245624 518.056709 -32.616305 C 520.360709 -33.912318 522.952709 -34.632326 525.832709 -34.632326 C 528.712709 -34.632326 531.30471 -33.912318 533.60871 -32.616305 C 535.91271 -31.245624 537.715377 -29.373604 539.011377 -27.000246 C 540.307377 -24.55222 541.027377 -21.816191 541.027377 -18.792159 C 541.027377 -15.69346 540.307377 -12.957431 539.011377 -10.584073 C 537.715377 -8.136047 535.91271 -6.264028 533.60871 -4.968014 Z M 533.60871 -4.968014 "
    stroke="#b2afc1" stroke-width="0.7" stroke-opacity="1" stroke-miterlimit="2" />
  <path stroke-linecap="butt" transform="matrix(0.732422, 0, 0, 0.732414, -156.45948, 86.4238)"
    fill-opacity="1" fill="#a2b3c3" fill-rule="nonzero" stroke-linejoin="miter"
    d="M 574.488712 -2.375987 L 572.979379 -4.893347 C 571.395379 -3.458665 569.448712 -2.807991 567.144712 -2.807991 C 564.840712 -2.807991 563.043378 -3.383997 561.891378 -4.680011 C 560.739378 -5.976025 560.163378 -7.848044 560.163378 -10.29607 L 560.163378 -34.488324 L 572.115379 -34.488324 L 572.115379 -37.58169 L 560.163378 -37.58169 L 560.163378 -45.789777 L 556.563378 -45.789777 L 556.563378 -37.58169 L 549.651377 -37.58169 L 549.651377 -34.488324 L 556.563378 -34.488324 L 556.563378 -9.9334 C 556.563378 -6.696032 557.427378 -4.173339 559.224711 -2.375987 C 560.952711 -0.578635 563.475378 0.285375 566.787378 0.285375 C 568.227378 0.285375 569.667379 0.0720389 571.032712 -0.359966 C 572.339379 -0.770637 573.491379 -1.442644 574.488712 -2.375987 Z M 574.488712 -2.375987 "
    stroke="#a2b3c3" stroke-width="0.7" stroke-opacity="1" stroke-miterlimit="2" />
  <path stroke-linecap="butt" transform="matrix(0.732422, 0, 0, 0.732414, -156.45948, 86.4238)"
    fill-opacity="1" fill="#93b7c4" fill-rule="nonzero" stroke-linejoin="miter"
    d="M 584.53138 -53.421857 L 584.53138 -0.00262851 L 588.13138 -0.00262851 L 588.13138 -53.421857 Z M 584.53138 -53.421857 "
    stroke="#93b7c4" stroke-width="0.7" stroke-opacity="1" stroke-miterlimit="2" />
  <path stroke-linecap="butt" transform="matrix(0.732422, 0, 0, 0.732414, -156.45948, 86.4238)"
    fill-opacity="1" fill="#84bbc5" fill-rule="nonzero" stroke-linejoin="miter"
    d="M 625.550049 -4.248006 C 623.459382 -3.383997 621.155382 -2.951993 618.782048 -2.951993 C 614.894048 -2.951993 611.651381 -3.960003 608.915381 -5.976025 C 606.179381 -7.992046 604.307381 -10.728075 603.443381 -14.184111 L 635.198049 -20.376176 C 634.979383 -23.688211 634.190049 -26.637575 632.606049 -29.30427 C 631.022049 -31.965631 628.931382 -34.05632 626.339382 -35.565669 C 623.752715 -37.080352 620.798048 -37.869693 617.555382 -37.869693 C 614.030048 -37.869693 610.862048 -37.005684 608.126048 -35.421668 C 605.320714 -33.768317 603.155381 -31.533627 601.571381 -28.653596 C 599.992714 -25.773566 599.26738 -22.461531 599.26738 -18.792159 C 599.26738 -15.04812 600.062047 -11.805419 601.715381 -8.925389 C 603.374047 -6.045359 605.678047 -3.746668 608.627381 -2.162651 C 611.582048 -0.503967 614.894048 0.285375 618.707382 0.285375 C 621.587382 0.285375 624.254049 -0.215964 626.776715 -1.223975 C 629.150049 -2.231985 631.235382 -3.746668 632.894049 -5.832023 L 630.803382 -8.205381 C 629.363382 -6.408029 627.635382 -5.112016 625.550049 -4.248006 Z M 609.923381 -32.685639 C 612.158048 -33.981652 614.675381 -34.70166 617.555382 -34.70166 C 620.003382 -34.70166 622.307382 -34.125654 624.323382 -33.048309 C 626.339382 -31.965631 627.923382 -30.456282 629.219382 -28.653596 C 630.456716 -26.760243 631.246049 -24.696222 631.598049 -22.461531 L 602.942047 -16.845472 C 602.798047 -17.784149 602.798047 -18.504156 602.798047 -19.080162 C 602.798047 -22.029527 603.374047 -24.765556 604.670047 -27.144247 C 605.891381 -29.517606 607.619381 -31.389625 609.923381 -32.685639 Z M 609.923381 -32.685639 "
    stroke="#84bbc5" stroke-width="0.7" stroke-opacity="1" stroke-miterlimit="2" />
  <path stroke-linecap="butt" transform="matrix(0.732422, 0, 0, 0.732414, -156.45948, 86.4238)"
    fill-opacity="1" fill="#74bfc7" fill-rule="nonzero" stroke-linejoin="miter"
    d="M 675.923385 -33.768317 C 673.187385 -36.504346 669.443385 -37.869693 664.766051 -37.869693 C 661.235384 -37.869693 658.211384 -37.080352 655.619384 -35.640337 C 653.027384 -34.125654 651.155384 -32.040299 649.859384 -29.448271 L 649.859384 -37.58169 L 646.403383 -37.58169 L 646.403383 -0.00262851 L 650.003384 -0.00262851 L 650.003384 -20.013506 C 650.003384 -24.477553 651.23005 -28.008256 653.822051 -30.669618 C 656.339384 -33.261645 659.795384 -34.632326 664.259384 -34.632326 C 668.078051 -34.632326 671.027385 -33.480314 673.187385 -31.320291 C 675.347385 -29.085601 676.430052 -25.848234 676.430052 -21.67219 L 676.430052 -0.00262851 L 680.030052 -0.00262851 L 680.030052 -21.960193 C 680.030052 -27.06958 678.659385 -31.032288 675.923385 -33.768317 Z M 675.923385 -33.768317 "
    stroke="#74bfc7" stroke-width="0.7" stroke-opacity="1" stroke-miterlimit="2" />
  <path stroke-linecap="butt" transform="matrix(0.732422, 0, 0, 0.732414, -156.45948, 86.4238)"
    fill-opacity="1" fill="#65c3c8" fill-rule="nonzero" stroke-linejoin="miter"
    d="M 695.78472 -1.079973 C 698.52072 -0.14663 701.40072 0.285375 704.42472 0.285375 C 709.107387 0.285375 712.776721 -0.647969 715.368721 -2.519988 C 717.960721 -4.392008 719.256721 -6.840034 719.256721 -10.008067 C 719.256721 -12.312091 718.611388 -14.184111 717.384721 -15.549459 C 716.088721 -16.845472 714.579388 -17.853483 712.776721 -18.429489 C 710.979387 -19.005495 708.600721 -19.581501 705.72072 -20.157507 C 703.059387 -20.664179 700.96872 -21.165518 699.52872 -21.597522 C 698.142053 -22.008193 696.915387 -22.706867 695.859386 -23.688211 C 694.851386 -24.621554 694.34472 -25.917568 694.34472 -27.645586 C 694.34472 -29.736275 695.20872 -31.464293 697.011387 -32.760306 C 698.739387 -34.05632 701.40072 -34.70166 704.931387 -34.70166 C 706.947387 -34.70166 708.963387 -34.413657 710.979387 -33.837651 C 712.920721 -33.261645 714.648721 -32.397636 716.232721 -31.320291 L 717.891388 -34.200321 C 716.376721 -35.277666 714.435388 -36.141675 712.131387 -36.861683 C 709.752721 -37.512356 707.379387 -37.869693 705.00072 -37.869693 C 700.39272 -37.869693 696.867387 -36.861683 694.419386 -34.920329 C 691.971386 -32.973642 690.744719 -30.525616 690.744719 -27.576252 C 690.744719 -25.128226 691.395386 -23.181539 692.691386 -21.816191 C 693.987386 -20.376176 695.49672 -19.368165 697.36872 -18.792159 C 699.171387 -18.141486 701.54472 -17.56548 704.56872 -17.064141 C 707.091387 -16.557469 709.107387 -16.125465 710.547387 -15.69346 C 711.987387 -15.261456 713.139388 -14.541448 714.147388 -13.677439 C 715.155388 -12.744096 715.656721 -11.517416 715.656721 -9.9334 C 715.656721 -7.704043 714.723388 -5.976025 712.920721 -4.749345 C 711.123387 -3.458665 708.312721 -2.882659 704.56872 -2.882659 C 701.907387 -2.882659 699.38472 -3.314663 696.93672 -4.173339 C 694.48872 -5.037348 692.547386 -6.120026 691.032719 -7.41604 L 689.379386 -4.53601 C 690.888719 -3.095994 693.04872 -1.943982 695.78472 -1.079973 Z M 695.78472 -1.079973 "
    stroke="#65c3c8" stroke-width="0.7" stroke-opacity="1" stroke-miterlimit="2" />
  <g clip-path="url(#edb47362bb)">
    <path fill="#437f86"
      d="M 8.125 91.289062 L 15.796875 83.636719 C 15.835938 83.597656 15.878906 83.570312 15.921875 83.542969 C 16.609375 84.601562 17.433594 85.609375 18.363281 86.539062 C 19.292969 87.46875 20.300781 88.292969 21.371094 88.984375 C 21.335938 89.023438 21.304688 89.070312 21.269531 89.109375 L 13.613281 96.777344 C 12.097656 98.289062 9.636719 98.289062 8.125 96.777344 C 6.613281 95.265625 6.613281 92.804688 8.125 91.289062 Z M 8.125 91.289062 "
      fill-opacity="1" fill-rule="nonzero" />
  </g>
  <path fill="#437f86"
    d="M 18.363281 86.539062 C 19.292969 87.46875 20.300781 88.292969 21.371094 88.984375 C 21.335938 89.023438 21.304688 89.070312 21.269531 89.109375 L 13.613281 96.777344 C 12.097656 98.289062 9.636719 98.289062 8.125 96.777344 Z M 18.363281 86.539062 "
    fill-opacity="1" fill-rule="nonzero" />
  <path fill="#65c3c1"
    d="M 19.457031 60.164062 C 26.425781 53.199219 37.761719 53.199219 44.730469 60.164062 C 51.707031 67.132812 51.707031 78.476562 44.734375 85.445312 C 37.761719 92.410156 26.425781 92.410156 19.457031 85.445312 C 12.488281 78.476562 12.488281 67.132812 19.457031 60.164062 Z M 41.449219 82.164062 C 46.609375 77.003906 46.609375 68.605469 41.449219 63.453125 C 36.289062 58.292969 27.894531 58.292969 22.738281 63.449219 C 17.582031 68.605469 17.585938 76.996094 22.738281 82.164062 C 27.894531 87.304688 36.289062 87.324219 41.449219 82.164062 Z M 41.449219 82.164062 "
    fill-opacity="1" fill-rule="nonzero" />
  <path fill="#65c3c8"
    d="M 44.730469 60.164062 C 51.707031 67.132812 51.707031 78.476562 44.734375 85.445312 C 37.761719 92.410156 26.425781 92.410156 19.457031 85.445312 L 22.738281 82.164062 C 27.894531 87.304688 36.289062 87.324219 41.449219 82.164062 C 46.609375 77.003906 46.609375 68.605469 41.449219 63.453125 L 41.445312 63.449219 Z M 44.730469 60.164062 "
    fill-opacity="1" fill-rule="nonzero" />
  <path fill="#437f86"
    d="M 26.128906 70.398438 C 25.65625 71.929688 23.964844 73.988281 22.699219 73.222656 C 21.691406 72.628906 22.132812 70.214844 22.710938 68.808594 C 25.304688 62.402344 33.351562 61.511719 34.128906 62.390625 C 34.890625 63.253906 28.007812 64.339844 26.128906 70.398438 Z M 26.128906 70.398438 "
    fill-opacity="1" fill-rule="nonzero" />
</svg>